<?xml version="1.0" standalone="no"?><!-- Generator: Gravit.io --><svg xmlns="http://www.w3.org/2000/svg" xmlns:xlink="http://www.w3.org/1999/xlink" style="isolation:isolate" viewBox="638.188 368 26.812 27.015" width="26.812" height="27.015"><defs><clipPath id="_clipPath_YzlG8IyyG4LMNjyjuMVplcIclfPPgzwB"><rect x="638.188" y="368" width="26.812" height="27.015"/></clipPath></defs><g clip-path="url(#_clipPath_YzlG8IyyG4LMNjyjuMVplcIclfPPgzwB)"><g><path d="M 646.478 368 L 656.71 368 C 658.763 368 660.43 369.667 660.43 371.72 L 660.43 375.503 C 660.43 377.556 658.763 379.222 656.71 379.222 L 646.478 379.222 C 644.425 379.222 642.758 377.556 642.758 375.503 L 642.758 371.72 C 642.758 369.667 644.425 368 646.478 368 Z" style="stroke:none;fill:#2E2E2E;stroke-miterlimit:10;"/><path d="M 645.386 382.32 L 658.614 382.32 C 659.841 382.32 660.836 383.316 660.836 384.542 L 660.836 392.794 C 660.836 394.02 659.841 395.015 658.614 395.015 L 645.386 395.015 C 644.16 395.015 643.164 394.02 643.164 392.794 L 643.164 384.542 C 643.164 383.316 644.16 382.32 645.386 382.32 Z" style="stroke:none;fill:#2E2E2E;stroke-miterlimit:10;"/><path d="M 646.06 370.318 L 657.332 370.318 C 657.977 370.318 658.5 370.842 658.5 371.487 L 658.5 376.573 C 658.5 377.217 657.977 377.741 657.332 377.741 L 646.06 377.741 C 645.415 377.741 644.891 377.217 644.891 376.573 L 644.891 371.487 C 644.891 370.842 645.415 370.318 646.06 370.318 Z" style="stroke:none;fill:#FFFFFF;stroke-miterlimit:10;"/><path d="M 641.228 375.515 L 661.96 375.515 C 663.638 375.515 665 376.878 665 378.555 L 665 385.678 C 665 387.356 663.638 388.718 661.96 388.718 L 641.228 388.718 C 639.55 388.718 638.188 387.356 638.188 385.678 L 638.188 378.555 C 638.188 376.878 639.55 375.515 641.228 375.515 Z" style="stroke:none;fill:#2E2E2E;stroke-miterlimit:10;"/><path d="M 644.891 383.488 L 659.313 383.488 L 659.313 392.688 C 659.313 393.328 658.793 393.847 658.154 393.847 L 646.05 393.847 C 645.41 393.847 644.891 393.328 644.891 392.688 L 644.891 383.488 Z" style="stroke:none;fill:#FFFFFF;stroke-miterlimit:10;"/><circle vector-effect="non-scaling-stroke" cx="661.7500569605834" cy="378.65514137616776" r="0.9140464798359744" fill="rgb(255,255,255)"/><rect x="646.516" y="385.672" width="10.562" height="2.031" transform="matrix(1,0,0,1,0,0)" fill="rgb(46,46,46)"/><rect x="646.719" y="389.125" width="7.109" height="2.031" transform="matrix(1,0,0,1,0,0)" fill="rgb(46,46,46)"/></g></g></svg>